<?xml version="1.0" encoding="utf-8"?>
<!-- Generator: Adobe Illustrator 20.1.0, SVG Export Plug-In . SVG Version: 6.00 Build 0)  -->
<svg version="1.1" id="Layer_1" xmlns="http://www.w3.org/2000/svg" xmlns:xlink="http://www.w3.org/1999/xlink" x="0px" y="0px"
	 viewBox="0 0 600 355.6" style="enable-background:new 0 0 600 355.6;" xml:space="preserve">
<style type="text/css">
	.st0{fill:none;}
	.st1{fill:#FFFFFF;}
	.st2{opacity:0.8;filter:url(#filter-2);enable-background:new    ;}
	.st3{fill:url(#SVGID_1_);}
	.st4{filter:url(#filter-4);}
	.st5{fill:url(#SVGID_2_);}
	.st6{filter:url(#filter-5);}
	.st7{fill:url(#SVGID_3_);}
	.st8{filter:url(#filter-11);}
	.st9{fill:url(#path-10_4_);}
	.st10{fill:#F3F3F3;}
	.st11{filter:url(#filter-12);}
	.st12{fill:url(#path-14_2_);}
	.st13{fill:#FFFFFF;fill-opacity:0.9;}
	.st14{fill:url(#path-16_2_);}
	.st15{fill:url(#path-18_3_);}
	.st16{fill:url(#path-18_6_);fill-opacity:3.000000e-02;}
	.st17{fill:#FFFFFF;fill-opacity:0.4;}
</style>
<filter  filterUnits="objectBoundingBox" height="200%" id="filter-5" width="200%" x="-50%" y="-50%">
	<feGaussianBlur  in="SourceGraphic" stdDeviation="2.49988511"></feGaussianBlur>
</filter>
<filter  filterUnits="objectBoundingBox" height="200%" id="filter-4" width="200%" x="-50%" y="-50%">
	<feGaussianBlur  in="SourceGraphic" stdDeviation="2.49988511"></feGaussianBlur>
</filter>
<filter  filterUnits="objectBoundingBox" height="200%" id="filter-2" width="200%" x="-50%" y="-50%">
	<feGaussianBlur  in="SourceGraphic" stdDeviation="2.49988511"></feGaussianBlur>
</filter>
<filter  filterUnits="objectBoundingBox" height="200%" id="filter-12" width="200%" x="-50%" y="-50%">
	<feGaussianBlur  in="SourceAlpha" result="shadowBlurInner1" stdDeviation="0.5"></feGaussianBlur>
	<feOffset  dx="0" dy="1" in="shadowBlurInner1" result="shadowOffsetInner1"></feOffset>
	<feComposite  in="shadowOffsetInner1" in2="SourceAlpha" k2="-1" k3="1" operator="arithmetic" result="shadowInnerInner1">
		</feComposite>
	<feColorMatrix  in="shadowInnerInner1" type="matrix" values="0 0 0 0 1   0 0 0 0 1   0 0 0 0 1  0 0 0 1 0"></feColorMatrix>
</filter>
<filter  filterUnits="objectBoundingBox" height="200%" id="filter-11" width="200%" x="-50%" y="-50%">
	<feOffset  dx="0" dy="1" in="SourceAlpha" result="shadowOffsetOuter1"></feOffset>
	<feColorMatrix  in="shadowOffsetOuter1" type="matrix" values="0 0 0 0 0   0 0 0 0 0   0 0 0 0 0  0 0 0 0.2 0"></feColorMatrix>
</filter>
<pattern  y="495" width="258" height="258" patternUnits="userSpaceOnUse" id="pattern-19" viewBox="0 -329.5 258 258" style="overflow:visible;">
	<g>
		<rect y="-329.5" class="st0" width="258" height="258"/>
		<g>
			
				<image style="overflow:visible;enable-background:new    ;" width="258" height="258" id="image-20_1_" xlink:href="3908C9ED3584ECFF.html"  transform="matrix(1 0 0 -1 258 0)">
			</image>
		</g>
	</g>
</pattern>
<g>
	<polygon id="path-21" class="st1" points="73,24 529,24 529,307.5 73,307.5 	"/>
</g>
<title>macbook</title>
<desc>Created with Sketch.</desc>
<g id="Blocks">
	<g id="Blocks-" transform="translate(-590.000000, -214.000000)">
		<g id="TOP">
			<g id="Comp" transform="translate(590.000000, 214.000000)">
				<g id="macbook">
					<g id="shadows" transform="translate(18.000000, 306.415490)">
						<g id="Rectangle-5" class="st2">
							
								<linearGradient id="SVGID_1_" gradientUnits="userSpaceOnUse" x1="-15.0269" y1="419.7317" x2="-16.0042" y2="419.7317" gradientTransform="matrix(475 0 0 2.9953 7647 -1226.666)">
								<stop  offset="0" style="stop-color:#000000;stop-opacity:0"/>
								<stop  offset="0.1421" style="stop-color:#000000"/>
								<stop  offset="0.491" style="stop-color:#000000"/>
								<stop  offset="0.8527" style="stop-color:#000000"/>
								<stop  offset="1" style="stop-color:#000000;stop-opacity:0"/>
							</linearGradient>
							<rect x="45" y="29.1" class="st3" width="475" height="3"/>
						</g>
						<g id="Rectangle-5_1_" class="st4">
							
								<linearGradient id="SVGID_2_" gradientUnits="userSpaceOnUse" x1="-15.0269" y1="217.6268" x2="-16.0042" y2="217.6268" gradientTransform="matrix(475.2 0 0 -1.1985 7605.2002 294.3824)">
								<stop  offset="0" style="stop-color:#FFFFFF;stop-opacity:0"/>
								<stop  offset="0.8527" style="stop-color:#000000"/>
								<stop  offset="1" style="stop-color:#000000;stop-opacity:0"/>
							</linearGradient>
							<rect y="33" class="st5" width="475.2" height="1.2"/>
						</g>
						<g id="Rectangle-5_2_" class="st6">
							
								<linearGradient id="SVGID_3_" gradientUnits="userSpaceOnUse" x1="-15.0185" y1="217.6268" x2="-15.9958" y2="217.6268" gradientTransform="matrix(-475.2 0 0 -1.1985 -7042 294.3824)">
								<stop  offset="0" style="stop-color:#FFFFFF;stop-opacity:0"/>
								<stop  offset="0.8527" style="stop-color:#000000"/>
								<stop  offset="1" style="stop-color:#000000;stop-opacity:0"/>
							</linearGradient>
							<rect x="84" y="33" class="st7" width="475.2" height="1.2"/>
						</g>
					</g>
					<g id="case">
						<g id="screen">
							<g class="st8">
								<path d="M63.6,0h473.8C546,0,553,7,553,15.6v298.3c0,8.6-7,15.6-15.6,15.6H63.6c-8.6,0-15.6-7-15.6-15.6V15.6
									C48,7,55,0,63.6,0z"/>
							</g>
							<g>
								
									<linearGradient id="path-10_4_" gradientUnits="userSpaceOnUse" x1="2.4036" y1="668.38" x2="2.5802" y2="667.3956" gradientTransform="matrix(505 0 0 -329.4828 -960 220214.7188)">
									<stop  offset="0" style="stop-color:#EEEEEE"/>
									<stop  offset="1" style="stop-color:#DEDEDE"/>
								</linearGradient>
								<path id="path-10_1_" class="st9" d="M63.6,0h473.8C546,0,553,7,553,15.6v298.3c0,8.6-7,15.6-15.6,15.6H63.6
									c-8.6,0-15.6-7-15.6-15.6V15.6C48,7,55,0,63.6,0z"/>
							</g>
							<g>
								<path id="path-10_2_" class="st10" d="M63.6,0h473.8C546,0,553,7,553,15.6v298.3c0,8.6-7,15.6-15.6,15.6H63.6
									c-8.6,0-15.6-7-15.6-15.6V15.6C48,7,55,0,63.6,0z"/>
							</g>
							<g class="st11">
								<path d="M63.6,0h473.8C546,0,553,7,553,15.6v298.3c0,8.6-7,15.6-15.6,15.6H63.6c-8.6,0-15.6-7-15.6-15.6V15.6
									C48,7,55,0,63.6,0z"/>
							</g>
						</g>
						<g id="front">
							<g>
								
									<linearGradient id="path-14_2_" gradientUnits="userSpaceOnUse" x1="1.9967" y1="625.0721" x2="2.9967" y2="625.0721" gradientTransform="matrix(600 0 0 -3.9937 -1198 2824.8538)">
									<stop  offset="0" style="stop-color:#B9B9B9"/>
									<stop  offset="2.950000e-02" style="stop-color:#EBEBEB"/>
									<stop  offset="9.103516e-02" style="stop-color:#F7F7F7"/>
									<stop  offset="0.1956" style="stop-color:#F2F2F2"/>
									<stop  offset="0.277" style="stop-color:#DBDBDB"/>
									<stop  offset="0.4045" style="stop-color:#D2D2D2"/>
									<stop  offset="0.5945" style="stop-color:#D3D2D3"/>
									<stop  offset="0.6663" style="stop-color:#D5D5D6"/>
									<stop  offset="0.7409" style="stop-color:#E5E5E6"/>
									<stop  offset="0.8755" style="stop-color:#FAFAFA"/>
									<stop  offset="0.9725" style="stop-color:#DFDFE0"/>
									<stop  offset="1" style="stop-color:#C1C1C1"/>
								</linearGradient>
								<rect id="path-14" y="326.5" class="st12" width="600" height="4"/>
							</g>
							<g>
								<rect id="path-14_1_" y="326.5" class="st13" width="600" height="4"/>
							</g>
						</g>
						<g id="notch">
							<g>
								
									<linearGradient id="path-16_2_" gradientUnits="userSpaceOnUse" x1="1.9813" y1="610.6328" x2="2.9813" y2="610.6328" gradientTransform="matrix(107 0 0 -2.9953 35 2157.0122)">
									<stop  offset="0" style="stop-color:#898A8C"/>
									<stop  offset="2.182453e-02" style="stop-color:#BCBDBF"/>
									<stop  offset="6.601124e-02" style="stop-color:#E0E1E1"/>
									<stop  offset="0.129" style="stop-color:#EDEEEF"/>
									<stop  offset="0.3324" style="stop-color:#F0F1F2"/>
									<stop  offset="0.5141" style="stop-color:#EEEFF0"/>
									<stop  offset="0.7305" style="stop-color:#EEEFF0"/>
									<stop  offset="0.9354" style="stop-color:#DFE0E1"/>
									<stop  offset="0.977" style="stop-color:#BFC0C2"/>
									<stop  offset="1" style="stop-color:#97989A"/>
								</linearGradient>
								<path id="path-16" class="st14" d="M248.5,326.5h104c0.8,0,1.5,0.7,1.5,1.5l0,0c0,0.8-0.7,1.5-1.5,1.5h-104
									c-0.8,0-1.5-0.7-1.5-1.5l0,0C247,327.2,247.7,326.5,248.5,326.5z"/>
							</g>
							<g>
								<path id="path-16_1_" class="st1" d="M248.5,326.5h104c0.8,0,1.5,0.7,1.5,1.5l0,0c0,0.8-0.7,1.5-1.5,1.5h-104
									c-0.8,0-1.5-0.7-1.5-1.5l0,0C247,327.2,247.7,326.5,248.5,326.5z"/>
							</g>
						</g>
						<g id="bottom">
							<g>
								
									<linearGradient id="path-18_3_" gradientUnits="userSpaceOnUse" x1="2.4967" y1="647.231" x2="2.4967" y2="646.231" gradientTransform="matrix(600 0 0 -7.9875 -1198 5499.2129)">
									<stop  offset="0" style="stop-color:#C8C8C8"/>
									<stop  offset="1" style="stop-color:#8B8B8B"/>
								</linearGradient>
								<path id="path-18" class="st15" d="M0,330.5c0,0,14.4,7,96,7c82.1,0,205,0,205,0v-8L0,330.5z M600,330.5c0,0-14.4,7-96,7
									c-81.6,0-203,0-203,0v-8L600,330.5z"/>
							</g>
							<g>
								<pattern  id="path-18_6_" xlink:href="#pattern-19" patternTransform="matrix(1 0 0 -1 -260 -16870.6699)">
								</pattern>
								<path id="path-18_1_" class="st16" d="M0,330.5c0,0,14.4,7,96,7c82.1,0,205,0,205,0v-8L0,330.5z M600,330.5c0,0-14.4,7-96,7
									c-81.6,0-203,0-203,0v-8L600,330.5z"/>
							</g>
							<g>
								<path id="path-18_2_" class="st17" d="M0,330.5c0,0,14.4,7,96,7c82.1,0,205,0,205,0v-8L0,330.5z M600,330.5c0,0-14.4,7-96,7
									c-81.6,0-203,0-203,0v-8L600,330.5z"/>
							</g>
						</g>
					</g>
				</g>
			</g>
		</g>
	</g>
</g>
</svg>
